# xmcd
#
# Track frame offsets: 
#        150
#        17180
#        35187
#        53647
#        67035
#        88887
#        106352
#        127277
#        144680
#        156682
#        171255
#        186730
#
# Disc length: 2742 seconds
#
# Revision: 2
# Processed by: cddbd v1.5.1PL2 Copyright (c) Steve Scherf et al.
# Submitted via: ExactAudioCopy v0.95b2
#
DISCID=c50ab40c
DTITLE=Gipsy Kings - Mosaïque
DYEAR=1989
DGENRE=Folk/Rock
TTITLE0=Caminando por la calle
TTITLE1=Viento del arena
TTITLE2=Mosaïque
TTITLE3=Camino
TTITLE4=Passion
TTITLE5=Soy
TTITLE6=Volare (Nel blu di pinto di blu)
TTITLE7=Trista pena
TTITLE8=Liberté
TTITLE9=Serana
TTITLE10=Bossamba
TTITLE11=Vamos a bailar
EXTD=YEAR: 1991
EXTT0=
EXTT1=
EXTT2=
EXTT3=
EXTT4=
EXTT5=
EXTT6=
EXTT7=
EXTT8=
EXTT9=
EXTT10=
EXTT11=
PLAYORDER=
